<?xml version="1.0" encoding="UTF-8"?>
<svg width="77px" height="62px" viewBox="0 0 77 62" version="1.1" xmlns="http://www.w3.org/2000/svg" xmlns:xlink="http://www.w3.org/1999/xlink">
    <!-- Generator: Sketch 46.2 (44496) - http://www.bohemiancoding.com/sketch -->
    <title>Page 1</title>
    <desc>Created with Sketch.</desc>
    <defs>
        <polygon id="path-1" points="0 61.796871 76.7462542 61.796871 76.7462542 0 0 0"></polygon>
    </defs>
    <g id="customer" stroke="none" stroke-width="1" fill="none" fill-rule="evenodd">
        <g id="splash" transform="translate(-149.000000, -63.000000)">
            <g id="Page-1" transform="translate(149.000000, 63.000000)">
                <mask id="mask-2" fill="white">
                    <use xlink:href="#path-1"></use>
                </mask>
                <g id="Clip-2"></g>
                <path d="M2.86961963,58.9213418 L5.29244584,58.9213418 L5.29244584,51.7007107 L2.86961963,51.7007107 L2.86961963,58.9213418 Z M2.86961963,48.8255816 L4.94227798,48.8255816 L4.94227798,42.3079288 L2.86961963,42.3079288 L2.86961963,48.8255816 Z M0,39.4323996 L5.89855167,39.4323996 C6.98259471,39.4323996 7.81149833,40.3270265 7.81149833,41.3492857 L7.81149833,48.5379086 C7.81149833,49.3365112 7.39664724,49.9434651 6.82288303,50.1035057 C7.68372899,50.2951543 8.16206547,51.1897811 8.16206547,51.9883836 L8.16206547,59.911993 C8.16206547,60.9338521 7.30121951,61.796871 6.24911881,61.796871 L0,61.796871 L0,39.4323996 Z" id="Fill-1" fill="#FFFFFF" mask="url(#mask-2)"></path>
                <path d="M19.8315991,39.4324396 L19.8315991,58.9213818 L22.2548246,58.9213818 L22.2548246,39.4324396 L25.1244442,39.4324396 L25.1244442,59.912033 C25.1244442,60.9338921 24.2635983,61.7965109 23.2114976,61.7965109 L18.8749261,61.7965109 C17.8547678,61.7965109 16.9623788,60.9338921 16.9623788,59.912033 L16.9623788,39.4324396 L19.8315991,39.4324396 Z" id="Fill-3" fill="#FFFFFF" mask="url(#mask-2)"></path>
                <path d="M36.9225458,58.9213418 L39.345372,58.9213418 L39.345372,42.3079288 L36.9225458,42.3079288 L36.9225458,58.9213418 Z M34.0529261,39.4323996 L40.3020449,39.4323996 C41.3856887,39.4323996 42.2149916,40.3270265 42.2149916,41.3492857 L42.2149916,59.911993 C42.2149916,60.9338521 41.3541456,61.796871 40.3020449,61.796871 L34.0529261,61.796871 L34.0529261,39.4323996 Z" id="Fill-4" fill="#FFFFFF" mask="url(#mask-2)"></path>
                <path d="M54.0124543,55.0555614 L54.0124543,58.9213418 L56.4356798,58.9213418 L56.4356798,51.7007107 L53.0561806,51.7007107 C51.9401952,51.7007107 51.1428347,50.7744758 51.1428347,49.8158327 L51.1428347,41.3492857 C51.1428347,40.230602 51.9078536,39.4323996 53.0561806,39.4323996 L57.3923528,39.4323996 C58.4763958,39.4323996 59.3049001,40.230602 59.3049001,41.3172776 L59.3049001,46.0136685 L56.4356798,46.0136685 L56.4356798,42.3079288 L54.0124543,42.3079288 L54.0124543,48.8255816 L57.3923528,48.8255816 C58.4763958,48.8255816 59.3049001,49.7198084 59.3049001,50.7424677 L59.3049001,59.911993 C59.3049001,60.9338521 58.4440542,61.796871 57.3923528,61.796871 L53.0561806,61.796871 C52.0360222,61.796871 51.1428347,60.9338521 51.1428347,59.911993 L51.1428347,55.0555614 L54.0124543,55.0555614 Z" id="Fill-5" fill="#FFFFFF" mask="url(#mask-2)"></path>
                <polygon id="Fill-6" fill="#FFFFFF" mask="url(#mask-2)" points="70.4332108 54.4483675 66.989827 39.4325596 69.9552736 39.4325596 71.8682203 49.9752331 73.7811669 39.4325596 76.7466136 39.4325596 73.3028304 54.4483675 73.3028304 61.7966309 70.4332108 61.7966309"></polygon>
                <polygon id="Fill-7" fill="#6EC572" mask="url(#mask-2)" points="30.8480318 24.259872 34.7398061 22.4294078 30.4886805 21.164287 21.1419536 23.4800743"></polygon>
                <polygon id="Fill-8" fill="#6EC572" mask="url(#mask-2)" points="32.894138 15.8837079 33.8727714 19.9471384 30.1882229 18.5047726 25.0906253 9.94860285"></polygon>
                <polygon id="Fill-9" fill="#6EC572" mask="url(#mask-2)" points="34.897761 27.0605822 35.362522 25.131293 33.6691789 26.0507262 30.5579953 31.2172363"></polygon>
                <polygon id="Fill-10" fill="#6EC572" mask="url(#mask-2)" points="45.5176695 24.5363021 41.6262944 22.7058379 45.8770207 21.440317 55.2241469 23.7565044"></polygon>
                <polygon id="Fill-11" fill="#6EC572" mask="url(#mask-2)" points="43.4717229 16.160138 42.4930896 20.2235685 46.1776381 18.7812027 51.2752356 10.2250329"></polygon>
                <polygon id="Fill-12" fill="#6EC572" mask="url(#mask-2)" points="41.4681399 27.3372124 41.0033789 25.407523 42.696722 26.3273563 45.8083048 31.4934664"></polygon>
                <polygon id="Fill-13" fill="#6EC572" mask="url(#mask-2)" points="34.9472716 11.9553917 37.67355 2.18451397 38.2828501 -4.00101461e-05 41.6184285 11.9553917 38.2828501 29.9483546"></polygon>
            </g>
        </g>
    </g>
</svg>